# xmcd
#
# Track frame offsets:
#	150
#	16544
#	33259
#	48613
#	61392
#	77530
#	91813
#	107225
#	124816
#	142137
#	156828
#	171974
#	186424
#	199115
#	215210
#	230539
#	244209
#	259497
#	275186
#	290132
#
# Disc length: 4079 seconds
#
# Revision: 4
# Processed by: cddbd v1.5.2PL0 Copyright (c) Steve Scherf et al.
# Submitted via: audiograbber 1.83.01
#
DISCID=380fed14
DTITLE=Schlager 2008 - Die Hits des Jahres CD 2
DYEAR=2008
DGENRE=Folk
TTITLE0=Semino Rossi (LC 10794) - Niemals Geb Ich Dich Her
TTITLE1=Helene Fischer (LC 10794) - Lass Mich In Dein Leben
TTITLE2=Patrick Lindner (LC 10794) - Weil Wir Alle Keine Engel Sind
TTITLE3=Kastelruther Spatzen (LC 10794) - Vertrauen
TTITLE4=Die Paldauer (LC 10794) -  Ploetzlich War's Liebe
TTITLE5=Gaby Albrecht (LC 10794) - Mandolinen Spielen Leise
TTITLE6=Andrea Juergens (LC 10794) - Dieses Parfum Auf Deiner Haut
TTITLE7=Bernhard Brink (LC 10794) - Offene Arme
TTITLE8=Dana Winner (LC 10794) - Nichts Zu Vergeben
TTITLE9=Romeo's Erben (LC 10794) - Dam Dam Dam
TTITLE10=Michael Heck (LC 10794) - Willkommen In Flamingo Bay
TTITLE11=Jens Bogner (LC 10794) - Feuer Und Flamme
TTITLE12=Matthias Sagorski (LC 10794) - Ich Brauch Dich Zum Gluecklich Sein
TTITLE13=Schlagerfeuer (LC 10794) - Russische Puppen
TTITLE14=Juliane Werding (LC 10794) - Unsichtbar
TTITLE15=Udo Wenders (LC 10794) - Der Letzte Zug, Cara Mia
TTITLE16=Xandra Hag (LC 10794) - Yo Te Quiero
TTITLE17=Edwina De Pooter (LC 10794) - Weil Ich Bin, Wie Ich Bin
TTITLE18=Olaf Berger (LC 10794) - Erste Liebe
TTITLE19=Kraus Wendel (LC 10794) - Hey There Delilah (Deutsche Version)
EXTD=
EXTT0=
EXTT1=
EXTT2=
EXTT3=
EXTT4=
EXTT5=
EXTT6=
EXTT7=
EXTT8=
EXTT9=
EXTT10=
EXTT11=
EXTT12=
EXTT13=
EXTT14=
EXTT15=
EXTT16=
EXTT17=
EXTT18=
EXTT19=
PLAYORDER=
